<?xml version="1.0" encoding="UTF-8"?>
<svg xmlns="http://www.w3.org/2000/svg" xmlns:xlink="http://www.w3.org/1999/xlink" viewBox="0 0 96 96" width="96px" height="96px">
<g id="surface458046">
<path style=" stroke:none;fill-rule:nonzero;fill:rgb(20.392157%,59.607846%,85.882354%);fill-opacity:1;" d="M 0.00390625 70.082031 L 3.84375 70.082031 L 3.84375 55.910156 L 9.179688 68.027344 C 9.835938 69.535156 10.734375 70.070312 12.503906 70.070312 C 14.269531 70.070312 15.132812 69.535156 15.789062 68.027344 L 21.125 56.222656 L 21.125 70.082031 L 24.964844 70.082031 L 24.964844 55.566406 C 24.964844 54.171875 24.410156 53.496094 23.265625 53.148438 C 20.53125 52.289062 18.695312 53.03125 17.867188 54.890625 L 12.394531 67.210938 L 7.097656 54.890625 C 6.300781 53.03125 4.433594 52.289062 1.699219 53.148438 C 0.554688 53.496094 0 54.171875 0 55.5625 L 0 70.078125 L 0.00390625 70.078125 Z M 0.00390625 70.082031 "/>
<path style=" stroke:none;fill-rule:nonzero;fill:rgb(20.392157%,59.607846%,85.882354%);fill-opacity:1;" d="M 26.882812 58.5625 L 30.722656 58.5625 L 30.722656 66.671875 C 30.691406 67.070312 30.851562 68.132812 32.703125 68.160156 C 33.644531 68.179688 38.34375 68.160156 38.402344 68.160156 L 38.402344 58.5625 L 42.242188 58.5625 C 42.257812 58.5625 42.242188 70.496094 42.242188 70.546875 C 42.261719 73.492188 38.585938 73.871094 36.894531 73.921875 L 26.882812 73.921875 L 26.882812 72.003906 C 26.902344 72.003906 36.457031 72.003906 36.484375 72.003906 C 38.660156 71.773438 38.402344 70.574219 38.402344 70.210938 L 38.402344 70.082031 L 32.378906 70.082031 C 29.039062 70.050781 26.910156 68.578125 26.886719 66.902344 C 26.882812 66.746094 26.957031 58.632812 26.882812 58.5625 Z M 26.882812 58.5625 "/>
<path style=" stroke:none;fill-rule:nonzero;fill:rgb(96.078432%,49.803922%,9.019608%);fill-opacity:1;" d="M 44.160156 70.082031 L 53.777344 70.082031 C 55.035156 70.082031 56.261719 69.816406 57.230469 69.363281 C 58.851562 68.617188 59.519531 67.613281 59.519531 66.289062 L 59.519531 63.554688 C 59.519531 60.601562 55.859375 60.480469 53.761719 60.480469 L 49.921875 60.480469 C 48.410156 60.480469 48.179688 59.570312 48 58.5625 L 48 56.640625 C 48.179688 55.875 48.515625 54.84375 49.847656 54.722656 C 51.390625 54.722656 59.519531 54.722656 59.519531 54.722656 L 59.519531 52.800781 L 50.386719 52.800781 C 48.875 52.800781 44.15625 52.980469 44.15625 56.640625 L 44.15625 59.015625 C 44.15625 60.695312 45.632812 62.0625 48.839844 62.398438 C 49.199219 62.425781 49.558594 62.449219 49.914062 62.449219 C 49.914062 62.449219 53.648438 62.375 53.757812 62.398438 C 55.914062 62.398438 55.675781 64.078125 55.675781 64.320312 L 55.675781 66.238281 C 55.675781 66.503906 55.617188 68.160156 53.734375 68.160156 C 53.589844 68.160156 44.15625 68.160156 44.15625 68.160156 L 44.15625 70.082031 Z M 44.160156 70.082031 "/>
<path style=" stroke:none;fill-rule:nonzero;fill:rgb(96.078432%,49.803922%,9.019608%);fill-opacity:1;" d="M 80.640625 66.160156 C 80.640625 68.476562 81.949219 69.777344 85.425781 70.039062 C 85.746094 70.058594 86.074219 70.078125 86.398438 70.078125 L 96 70.078125 L 96 68.160156 L 87.128906 68.160156 C 85.148438 68.160156 84.480469 67.328125 84.480469 66.136719 L 84.480469 52.800781 L 80.640625 52.800781 Z M 80.640625 66.160156 "/>
<path style=" stroke:none;fill-rule:nonzero;fill:rgb(96.078432%,49.803922%,9.019608%);fill-opacity:1;" d="M 61.40625 66.242188 L 61.40625 56.640625 C 61.40625 54.601562 62.40625 53.195312 65.238281 52.800781 L 74.527344 52.800781 C 77.359375 53.195312 78.6875 54.601562 78.6875 56.640625 L 78.6875 66.207031 C 78.6875 67.859375 78.257812 68.746094 76.855469 69.324219 L 79.832031 72 L 75.511719 72 L 73.371094 70.078125 L 70.859375 70.078125 L 66.585938 70.105469 C 65.96875 70.105469 65.316406 70.019531 64.601562 69.820312 C 62.453125 69.234375 61.40625 68.109375 61.40625 66.242188 Z M 65.246094 66.242188 C 65.445312 67.175781 66.195312 68.160156 67.527344 68.160156 L 71.257812 68.160156 L 69.121094 66.242188 L 73.46875 66.242188 L 74.507812 67.207031 C 74.507812 67.207031 74.878906 66.902344 74.878906 66.242188 C 74.878906 65.582031 74.847656 56.640625 74.847656 56.640625 C 74.652344 55.773438 73.773438 54.722656 72.472656 54.722656 L 67.53125 54.722656 C 66.03125 54.722656 65.25 55.816406 65.25 56.839844 Z M 65.246094 66.242188 "/>
<path style=" stroke:none;fill-rule:nonzero;fill:rgb(20.392157%,59.607846%,85.882354%);fill-opacity:1;" d="M 92.398438 50.777344 C 90.335938 50.722656 88.761719 50.914062 87.414062 51.480469 C 87.035156 51.640625 86.425781 51.644531 86.359375 52.125 C 86.570312 52.347656 86.601562 52.675781 86.769531 52.945312 C 87.089844 53.464844 87.632812 54.164062 88.117188 54.527344 C 88.648438 54.929688 89.195312 55.355469 89.761719 55.703125 C 90.769531 56.316406 91.894531 56.667969 92.867188 57.285156 C 93.4375 57.644531 94.007812 58.105469 94.566406 58.515625 C 94.84375 58.71875 95.027344 59.03125 95.386719 59.160156 C 95.386719 59.140625 95.386719 59.121094 95.386719 59.101562 C 95.199219 58.863281 95.148438 58.53125 94.976562 58.28125 C 94.722656 58.027344 94.46875 57.773438 94.214844 57.519531 C 93.46875 56.53125 92.523438 55.660156 91.519531 54.941406 C 90.714844 54.363281 88.921875 53.585938 88.585938 52.652344 C 88.566406 52.632812 88.546875 52.617188 88.527344 52.59375 C 89.09375 52.53125 89.761719 52.324219 90.285156 52.183594 C 91.164062 51.949219 91.953125 52.011719 92.863281 51.773438 C 93.273438 51.65625 93.683594 51.539062 94.09375 51.421875 C 94.09375 51.34375 94.09375 51.265625 94.09375 51.1875 C 93.632812 50.714844 93.300781 50.09375 92.800781 49.664062 C 91.488281 48.546875 90.054688 47.429688 88.582031 46.496094 C 87.765625 45.980469 86.753906 45.644531 85.886719 45.207031 C 85.59375 45.058594 85.082031 44.984375 84.890625 44.738281 C 84.433594 44.160156 84.1875 43.421875 83.835938 42.746094 C 83.101562 41.332031 82.375 39.785156 81.726562 38.292969 C 81.28125 37.277344 80.988281 36.273438 80.4375 35.363281 C 77.773438 30.984375 74.90625 28.34375 70.472656 25.746094 C 69.527344 25.195312 68.390625 24.976562 67.1875 24.691406 C 66.542969 24.652344 65.898438 24.613281 65.253906 24.574219 C 64.859375 24.40625 64.449219 23.929688 64.078125 23.695312 C 62.609375 22.765625 58.835938 20.742188 57.746094 23.398438 C 57.058594 25.074219 58.777344 26.710938 59.390625 27.5625 C 59.820312 28.15625 60.371094 28.824219 60.679688 29.496094 C 60.882812 29.9375 60.917969 30.378906 61.089844 30.847656 C 61.515625 31.992188 62.191406 33.300781 62.742188 34.363281 C 63.019531 34.902344 63.328125 35.464844 63.679688 35.945312 C 63.894531 36.238281 64.265625 36.371094 64.324219 36.824219 C 63.964844 37.332031 63.945312 38.117188 63.738281 38.761719 C 62.824219 41.652344 63.171875 45.242188 64.503906 47.378906 C 64.910156 48.035156 65.875 49.441406 67.199219 48.902344 C 68.355469 48.429688 68.097656 46.96875 68.429688 45.679688 C 68.503906 45.386719 68.457031 45.171875 68.605469 44.976562 C 68.605469 44.996094 68.605469 45.015625 68.605469 45.035156 C 68.957031 45.738281 69.304688 46.445312 69.660156 47.144531 C 70.441406 48.402344 71.828125 49.71875 73 50.605469 C 73.609375 51.066406 74.089844 51.863281 74.875 52.128906 C 74.875 52.109375 74.875 52.09375 74.875 52.070312 C 74.855469 52.070312 74.839844 52.070312 74.816406 52.070312 C 74.664062 51.832031 74.425781 51.734375 74.230469 51.542969 C 73.773438 51.09375 73.261719 50.535156 72.882812 50.019531 C 71.8125 48.566406 70.871094 46.980469 70.011719 45.328125 C 69.601562 44.539062 69.242188 43.671875 68.894531 42.867188 C 68.761719 42.554688 68.765625 42.089844 68.484375 41.929688 C 68.105469 42.515625 67.550781 42.992188 67.257812 43.6875 C 66.789062 44.796875 66.726562 46.152344 66.554688 47.554688 C 66.449219 47.589844 66.496094 47.566406 66.4375 47.613281 C 65.621094 47.414062 65.332031 46.574219 65.027344 45.855469 C 64.261719 44.03125 64.117188 41.09375 64.792969 38.996094 C 64.96875 38.453125 65.757812 36.742188 65.441406 36.238281 C 65.289062 35.738281 64.785156 35.449219 64.503906 35.066406 C 64.152344 34.59375 63.808594 33.96875 63.566406 33.425781 C 62.9375 32.003906 62.34375 30.347656 61.679688 28.910156 C 61.363281 28.222656 60.828125 27.527344 60.390625 26.917969 C 59.902344 26.242188 59.359375 25.742188 58.980469 24.925781 C 58.847656 24.636719 58.664062 24.171875 58.863281 23.871094 C 58.929688 23.667969 59.015625 23.585938 59.214844 23.519531 C 59.554688 23.253906 60.503906 23.605469 60.859375 23.753906 C 61.796875 24.140625 62.582031 24.515625 63.378906 25.042969 C 63.761719 25.296875 64.144531 25.785156 64.609375 25.921875 C 64.785156 25.921875 64.960938 25.921875 65.136719 25.921875 C 65.960938 26.113281 66.886719 25.980469 67.65625 26.214844 C 69.019531 26.628906 70.238281 27.273438 71.347656 27.972656 C 74.726562 30.109375 77.488281 33.144531 79.378906 36.769531 C 79.683594 37.351562 79.816406 37.90625 80.082031 38.527344 C 80.621094 39.773438 81.304688 41.058594 81.839844 42.277344 C 82.375 43.496094 82.898438 44.722656 83.65625 45.738281 C 84.058594 46.269531 85.597656 46.554688 86.296875 46.851562 C 86.785156 47.058594 87.589844 47.273438 88.054688 47.554688 C 88.941406 48.089844 89.800781 48.726562 90.632812 49.3125 C 91.054688 49.605469 92.335938 50.246094 92.398438 50.777344 Z M 92.398438 50.777344 "/>
<path style=" stroke:none;fill-rule:nonzero;fill:rgb(20.392157%,59.607846%,85.882354%);fill-opacity:1;" d="M 66.195312 28.445312 C 65.765625 28.4375 65.460938 28.492188 65.140625 28.5625 C 65.140625 28.585938 65.140625 28.601562 65.140625 28.625 C 65.160156 28.625 65.179688 28.625 65.199219 28.625 C 65.40625 29.042969 65.765625 29.316406 66.019531 29.679688 C 66.214844 30.089844 66.410156 30.5 66.605469 30.910156 C 66.625 30.890625 66.644531 30.871094 66.664062 30.851562 C 67.027344 30.597656 67.195312 30.1875 67.191406 29.5625 C 67.046875 29.40625 67.023438 29.214844 66.898438 29.035156 C 66.730469 28.789062 66.40625 28.648438 66.195312 28.445312 Z M 66.195312 28.445312 "/>
</g>
</svg>
