<svg xmlns="http://www.w3.org/2000/svg" width="2709" height="1112" viewBox="0 0 2709 1112">
  <defs>
    <style>
      .cls-1 {
        fill-rule: evenodd;
      }
    </style>
  </defs>
  <path id="dvn_logo_1" data-name="dvn logo 1" class="cls-1" d="M2691.76,935.377q-17.25,17.253-42.21,17.244-26.175,0-42.81-17.244-16.665-17.226-16.65-43.409V574.428q0-42.815-11.89-76.709a110.836,110.836,0,0,0-41.02-54.708q-29.16-20.793-81.46-20.812-48.765,0-85.62,20.812t-57.67,54.708q-20.82,33.894-20.81,76.709v317.54q0,26.174-17.24,43.409-17.25,17.253-42.21,17.244-26.175,0-42.81-17.244-16.665-17.226-16.65-43.409V387.709q0-26.145,16.65-43.409,16.635-17.226,42.81-17.244,24.96,0,42.21,17.244,17.22,17.254,17.24,43.409v36.174c2.43-3.528,4.98-7.061,7.73-10.6a286.751,286.751,0,0,1,50.54-49.95,247.312,247.312,0,0,1,66.59-36.868,223.959,223.959,0,0,1,78.48-13.677q84.42,0,130.81,35.084,46.365,35.094,64.8,93.954,18.42,58.87,18.43,131.416v318.73Q2709,918.142,2691.76,935.377Zm-589.2-529.828L1876.63,914.564q-15.48,35.679-51.14,38.057-17.835,2.37-35.08-7.73t-26.75-30.327L1538.91,405.549a81.546,81.546,0,0,1-4.75-12.488,62.566,62.566,0,0,1-2.38-18.434q0-17.84,16.05-35.678,16.065-17.84,43.41-17.84a65.528,65.528,0,0,1,33.89,9.515q16.05,9.532,23.18,28.542l177.65,410.8,175.52-409.607q16.65-39.248,53.51-38.058,23.775,0,39.84,14.867,16.05,14.885,16.05,38.651a50.658,50.658,0,0,1-2.38,14.867A96.653,96.653,0,0,1,2102.56,405.549ZM1410.51,952.621q-24.975,0-42.22-17.244-17.25-17.226-17.24-43.409V866.7a249.982,249.982,0,0,1-39.24,40.727q-29.745,24.976-70.16,41.031-40.44,16.056-86.81,16.055-82.05,0-147.45-42.219-65.406-42.2-103.451-115.361-38.07-73.141-38.052-168.285,0-95.133,38.052-168.284T1006.8,355q64.8-42.2,144.48-42.22,49.935,0,93.34,16.65,43.395,16.67,75.51,42.815a253.509,253.509,0,0,1,30.92,29.661V133.2q0-26.147,17.24-43.409,17.22-17.226,42.22-17.245,26.13,0,42.8,16.65,16.65,16.668,16.65,44V891.968q0,26.174-16.65,43.409Q1436.645,952.63,1410.51,952.621Zm-77.3-424.576q-23.805-48.751-66.59-77.3-42.81-28.543-98.7-28.543-54.7,0-96.91,28.543-42.225,28.542-66.59,77.3-24.387,48.78-24.377,110.6,0,61.853,24.377,110.6,24.36,48.78,66.59,77.3,42.2,28.542,96.91,28.543,57.09,0,99.3-28.543,42.195-28.543,65.99-77.3,23.775-48.752,23.78-110.6Q1356.99,576.825,1333.21,528.045ZM410.462,1076.31q-8.334,16.635-22,26.16a51.96,51.96,0,0,1-30.322,9.52q-20.235,0-41.62-16.65-21.4-16.68-21.4-42.82a63.322,63.322,0,0,1,7.135-28.54L785.035,35.68A66.358,66.358,0,0,1,807.628,9.516Q821.9,0.011,837.357,0q20.205,0,41.024,16.055,20.791,16.055,20.81,43.409a63.334,63.334,0,0,1-7.135,28.543Zm-295.107,0q-8.334,16.635-22,26.16a51.961,51.961,0,0,1-30.323,9.52q-20.234,0-41.619-16.65-21.4-16.68-21.4-42.82a63.329,63.329,0,0,1,7.135-28.54L489.928,35.68A66.35,66.35,0,0,1,512.521,9.516Q526.791,0.011,542.249,0q20.207,0,41.025,16.055,20.791,16.055,20.809,43.409a63.345,63.345,0,0,1-7.134,28.543Z"/>
</svg>
