<svg xmlns="http://www.w3.org/2000/svg" width="2773" height="1169" viewBox="0 0 2773 1169">
  <defs>
    <style>
      .cls-1 {
        stroke: #000;
        stroke-linejoin: round;
        stroke-width: 27px;
      }

      .cls-1, .cls-2 {
        fill-rule: evenodd;
      }
    </style>
  </defs>
  <path id="_dvn_copy_3" data-name="//dvn copy 3" class="cls-1" d="M133.835,1123.1q13.463-9.4,21.685-25.79L630.241,123.252a62.413,62.413,0,0,0,7.033-28.131q0-26.95-20.512-42.784t-40.44-15.824q-15.246,0-29.3,9.377a65.393,65.393,0,0,0-22.271,25.787L48.854,1045.74a62.381,62.381,0,0,0-7.033,28.13q0,25.77,21.1,42.19t41.025,16.41A51.273,51.273,0,0,0,133.835,1123.1Zm277.1,0q13.461-9.4,21.685-25.79L907.337,123.252a62.413,62.413,0,0,0,7.033-28.131q0-26.95-20.513-42.784T853.418,36.513q-15.247,0-29.3,9.377a65.4,65.4,0,0,0-22.271,25.787L325.95,1045.74a62.378,62.378,0,0,0-7.033,28.13q0,25.77,21.1,42.19t41.025,16.41A51.275,51.275,0,0,0,410.931,1123.1Zm959.4-994.573q-19.95,20.522-19.93,50.989V493.652l42.2-15.238q0-16.4-17-40.439-16.995-24.01-48.05-47.472-31.08-23.435-73.26-38.681-42.21-15.221-92.6-15.238-78.555,0-143.01,41.611-64.473,41.621-102.56,114.871-38.1,73.269-38.1,169.376,0,94.944,38.1,168.2,38.077,73.268,103.74,114.87,65.625,41.621,146.51,41.612,44.535,0,82.64-14.652,38.085-14.643,66.23-35.751,28.125-21.1,44.54-42.783,16.4-21.677,16.41-36.923L1350.4,846.47v57.435q0,30.5,19.93,50.989,19.92,20.522,50.4,20.512,30.465,0,50.4-20.512,19.92-20.495,19.93-50.989V179.516q0-31.648-19.93-51.575t-50.4-19.927Q1390.235,108.014,1370.33,128.527ZM1094.87,832.4q-38.67-25.77-60.36-70.329-21.705-44.534-21.69-99.633,0-56.264,21.69-100.805t60.36-70.329q38.685-25.77,89.09-25.788,51.555,0,90.25,25.788t60.37,70.329q21.675,44.561,21.68,100.805,0,55.109-21.68,99.633-21.7,44.559-60.37,70.329-38.67,25.8-90.25,25.787Q1133.545,858.191,1094.87,832.4Zm467.68-463.586q-18.765,20.522-18.75,41.611a74.767,74.767,0,0,0,2.93,22.271q2.91,9.4,5.27,15.238l218.02,482.927q10.545,24.615,31.06,36.336t42.79,8.2q41.01-2.334,59.78-44.541l219.19-482.927a184.3,184.3,0,0,0,6.45-17.582,59.472,59.472,0,0,0,2.93-17.582q0-26.95-18.17-45.128-18.2-18.159-47.47-18.169-42.21-2.334-62.13,44.542L1828.63,798.411l25.79-11.721L1682.11,392.847q-9.39-22.252-28.13-33.406a79,79,0,0,0-41.03-11.136Q1581.3,348.305,1562.55,368.818Zm883.8-19.927a238.13,238.13,0,0,0-60.95,32.235,292.052,292.052,0,0,0-46.89,42.783q-19.95,22.857-30.48,42.784l17.59,3.516v-50.4q0-30.468-19.93-50.989-19.95-20.495-50.4-20.513-30.495,0-50.4,20.513-19.95,20.522-19.93,50.989v484.1q0,30.5,19.93,50.989,19.905,20.522,50.4,20.512,30.465,0,50.4-20.512,19.92-20.495,19.93-50.989V603.834q0-38.68,16.99-69.743,16.98-31.043,49.23-49.816,32.235-18.736,79.12-18.755,48.06,0,73.85,18.755,25.77,18.764,35.75,49.816,9.945,31.071,9.96,69.743V903.905q0,30.5,19.93,50.989,19.92,20.522,50.4,20.512,30.465,0,50.4-20.512,19.92-20.495,19.93-50.989V603.834q0-73.845-16.99-134.211-17.01-60.357-62.13-96.7-45.135-36.318-131.87-36.336Q2480.335,336.584,2446.35,348.891Z"/>
  <path class="cls-2" d="M1393.72,421.613c-5.56-4.109-20.77-22.5-37.72-28.613-13.41-4.84-33.57-6.94-42,3-4.76,5.606-2.8,12.417-3,24-0.22,12.776-7.17,26.123-3,42,1.73,6.589,8.14,18.7,19,30,23.45,24.38,42.02,31.2,53,28,4.95-1.441,16.09-11.845,25-29,8.52-16.4,9.97-32.664,9-38a50.482,50.482,0,0,0-13-25A59.514,59.514,0,0,0,1393.72,421.613Z"/>
</svg>
